<!--?xml version="1.0" encoding="utf-8"?-->
<!-- Generator: Adobe Illustrator 18.1.1, SVG Export Plug-In . SVG Version: 6.00 Build 0)  -->

<svg version="1.1" id="_x31_0" xmlns="http://www.w3.org/2000/svg" xmlns:xlink="http://www.w3.org/1999/xlink" x="0px" y="0px" viewBox="0 0 512 512" style="width: 256px; height: 256px; opacity: 1;" xml:space="preserve">
<style type="text/css">
	.st0{fill:#374149;}
</style>
<g>
	<path class="st0" d="M244.963,433.038l-0.015-0.008v0.004c-0.035-0.016-0.145-0.066-0.145-0.066s-15.18,35.226-5.516,59.499
		c6.028,15.149,22.356,23.336,36.278,17.797c13.918-5.542,20.16-22.71,14.129-37.859
		C280.279,448.744,246.662,433.783,244.963,433.038z" style="fill: rgb(0, 0, 0);"></path>
	<path class="st0" d="M134.444,371.162l-0.015-0.008v0.004c-0.035-0.015-0.145-0.066-0.145-0.066s-15.176,35.226-5.515,59.5
		c6.027,15.144,22.355,23.332,36.277,17.793c13.922-5.539,20.16-22.707,14.133-37.855
		C169.764,386.87,136.147,371.909,134.444,371.162z" style="fill: rgb(0, 0, 0);"></path>
	<path class="st0" d="M349.193,368.362l-0.016-0.008c-0.035-0.015-0.145-0.062-0.145-0.062s-15.175,35.226-5.519,59.5
		c6.031,15.145,22.359,23.336,36.281,17.793c13.922-5.539,20.161-22.707,14.13-37.855
		C384.505,384.069,350.896,369.108,349.193,368.362z" style="fill: rgb(0, 0, 0);"></path>
	<path class="st0" d="M450.9,200.73c-7.336-4.18-15.386-7.313-24.019-9.074c0.042-1.121,0.086-2.242,0.086-3.374
		c0-53.782-43.602-97.386-97.386-97.386c-5.179,0-10.262,0.414-15.222,1.195C303.853,39.574,257.502,0,201.896,0
		C138.549,0,87.198,51.355,87.198,114.702c0,14.786,2.879,28.879,7.977,41.855c0.214,0.57,0.37,1.157,0.594,1.723
		c-16.367,3.734-31.156,11.594-43.238,22.418c-0.882,0.786-1.695,1.641-2.546,2.457c-1.055,1.02-2.141,2.008-3.149,3.07
		c-0.938,0.989-1.801,2.043-2.695,3.07c-0.879,1.004-1.786,1.977-2.621,3.016c-0.59,0.738-1.118,1.519-1.684,2.273
		c-1.086,1.434-2.179,2.86-3.183,4.352c-0.074,0.113-0.137,0.23-0.215,0.343c-10.297,15.442-16.328,33.969-16.328,53.926
		c0,53.786,43.602,97.386,97.386,97.386s255.253,0,294.323,0c44.226,0,80.074-35.847,80.074-80.074
		C491.892,240.506,475.337,214.429,450.9,200.73z" style="fill: rgb(0, 0, 0);"></path>
</g>
</svg>
