<!--?xml version="1.0" encoding="utf-8"?-->
<!-- Generator: Adobe Illustrator 18.1.1, SVG Export Plug-In . SVG Version: 6.00 Build 0)  -->

<svg version="1.1" id="_x31_0" xmlns="http://www.w3.org/2000/svg" xmlns:xlink="http://www.w3.org/1999/xlink" x="0px" y="0px" viewBox="0 0 512 512" style="width: 256px; height: 256px; opacity: 1;" xml:space="preserve">
<style type="text/css">
	.st0{fill:#374149;}
</style>
<g>
	<path class="st0" d="M446.682,189.371C437.838,133.41,390.99,89.902,333.4,86.199c-6.641-16.164-16.242-30.703-28.05-43.05
		c-0.371-0.391-0.778-0.746-1.153-1.133c-1.914-1.954-3.843-3.887-5.867-5.727c-2.214-2.019-4.511-3.938-6.847-5.808
		c-0.254-0.199-0.489-0.422-0.738-0.622c-2.547-2.004-5.164-3.906-7.84-5.726c-0.114-0.074-0.215-0.16-0.328-0.238
		c-2.168-1.465-4.41-2.82-6.656-4.16c-0.699-0.414-1.367-0.875-2.07-1.282c-1.282-0.73-2.61-1.374-3.914-2.066
		C250.342,5.946,228.127,0,204.776,0C128.143,0,65.861,62.371,65.861,139.004c0,7.582,0.539,15.074,1.805,22.566
		C28.041,182.238,2.404,223.402,2.404,269.977c0,33.206,13.309,63.386,34.836,85.511c0.214,0.223,0.41,0.465,0.629,0.688
		c1.566,1.586,3.23,3.062,4.883,4.562c0.976,0.89,1.906,1.828,2.914,2.687c1.058,0.902,2.188,1.715,3.278,2.582
		c1.676,1.332,3.328,2.695,5.074,3.942c0.609,0.434,1.258,0.808,1.874,1.23c2.286,1.57,4.586,3.117,6.985,4.535
		c0.238,0.14,0.492,0.254,0.73,0.39c11.781,6.851,24.832,11.855,38.832,14.48c0-0.019,0-0.035,0-0.054
		c0.05,0.012,0.106,0.027,0.156,0.035c-0.09-0.813-0.09-1.621-0.09-2.434c0-18.977,3.562-37.031,9.855-53.782
		c0.465-1.206,0.813-2.453,1.313-3.648c-0.012-0.004-0.019-0.004-0.027-0.008c0.019-0.05,0.035-0.102,0.054-0.152
		c-28.614-5.234-50.367-30.418-50.367-60.566c0-28.887,19.676-53.618,47.84-60.024l30.086-6.867l4.969-1.105l-0.011-0.024
		l0.16-0.039l-13.722-33.308c-3.879-9.387-5.867-19.406-5.867-29.606c0-43.054,35.023-77.988,77.988-77.988
		c37.098,0,69.234,26.266,76.543,62.554l5.687,28.703l28.882-4.512c3.25-0.543,6.5-0.812,9.75-0.812
		c33.938,0,61.558,27.71,61.558,61.648v2.254l-1.082,26.27l25.816,4.875c21.301,4.062,36.734,22.746,36.734,44.406
		c0,24.914-20.309,45.222-45.312,45.222h-3.375l-1.258-0.058c0.007,0.019,0.011,0.039,0.019,0.058h-0.168
		c7.039,17.512,10.832,36.558,10.832,56.508c0,1.442,0,2.886-0.09,4.332c55.781-3.07,100.281-49.465,100.281-106.062
		C509.596,243.801,484.232,206.16,446.682,189.371z" style="fill: rgb(255, 255, 255);"></path>
	<path class="st0" d="M370.014,338.195l0.137-0.078l-13.645-23.636l-0.035-0.066h-0.004l-0.078-0.137l-17.863,10.312l-12.43,7.051
		l7.657-28.574l0.046-0.168h-0.004l0.043-0.152l-18.66-5l-10.746,40.109l-2.074,7.618l-0.14,0.082l-21.309,12.301
		c-3.305-2.718-7.062-4.902-11.149-6.43v-8.023v-16.586v-0.207l34.926-34.922l-13.489-13.488l-0.058-0.058l-0.114-0.114
		l-12.511,12.512l-8.754,8.594v-34.871h-27.523v20.523l-0.114,14.395l-20.992-20.997l-0.046-0.042l-0.114-0.114l-13.66,13.66
		l29.035,29.035l5.89,5.934v0.161v24.609c-4.086,1.527-7.844,3.711-11.152,6.43l-6.942-4.007L209.6,345.45l-12.781-47.703
		l-18.504,4.957l-0.157,0.043l4.563,17.023l3.082,11.942l-30.195-17.434l-13.766,23.839l17.847,10.301l12.336,7.25l-28.738,7.703
		h-0.004l-0.153,0.043l5,18.66l39.278-10.524l8.469-2.238l0.141,0.082l15.613,9.016l5.691,3.285
		c-0.355,2.094-0.566,4.238-0.566,6.438c0,2.195,0.211,4.34,0.566,6.434l-6.945,4.012l-14.539,8.394l-47.707-12.782l-5,18.657
		l17.086,4.578l11.824,3.286l-30.199,17.434l13.645,23.637l0.038,0.066l0.082,0.136l17.879-10.32l12.414-7.043l-7.742,28.895
		l18.493,4.957l0.011,0.004l0.157,0.042l10.621-39.648l2.199-8.082l0.141-0.082l21.305-12.301c3.308,2.718,7.066,4.906,11.152,6.43
		v8.023v16.586v0.206l-34.813,34.809l-0.113,0.114l13.66,13.664l12.508-12.512l8.758-8.598v34.602v0.11V512h27.523v-20.672
		l0.11-14.246l21.156,21.156l13.661-13.664l-29.203-29.203l-5.723-5.766v-0.16v-24.61c4.086-1.523,7.844-3.711,11.153-6.43
		l6.942,4.008l14.538,8.394l12.742,47.546v0.008l0.043,0.156l18.477-4.953l0.027-0.008l0.156-0.042l-4.566-17.039l-3.082-11.926
		l30.199,17.434l13.614-23.578l0.07-0.122l0.078-0.14l-17.844-10.301l-12.336-7.25l28.894-7.746l-4.942-18.434l-0.015-0.07h-0.004
		l-0.039-0.153l-39.726,10.641l-8.019,2.118l-0.141-0.082l-15.614-9.012l-5.695-3.289c0.359-2.094,0.566-4.238,0.566-6.434
		c0-2.199-0.207-4.344-0.566-6.438l6.946-4.008l14.542-8.398l47.707,12.786l5-18.66l-17.082-4.578l-11.829-3.286l29.966-17.3
		L370.014,338.195z M255.998,398.832c-5.91,0-10.703-4.789-10.703-10.699s4.793-10.703,10.703-10.703
		c5.91,0,10.699,4.793,10.699,10.703S261.908,398.832,255.998,398.832z" style="fill: rgb(255, 255, 255);"></path>
</g>
</svg>
