<!--?xml version="1.0" encoding="utf-8"?-->
<!-- Generator: Adobe Illustrator 18.1.1, SVG Export Plug-In . SVG Version: 6.00 Build 0)  -->

<svg version="1.1" id="_x31_0" xmlns="http://www.w3.org/2000/svg" xmlns:xlink="http://www.w3.org/1999/xlink" x="0px" y="0px" viewBox="0 0 512 512" style="width: 256px; height: 256px; opacity: 1;" xml:space="preserve">
<style type="text/css">
	.st0{fill:#374149;}
</style>
<g>
	<path class="st0" d="M421.715,186.121c0.078-1.175,0.078-2.347,0.078-3.519c0-52.137-42.289-94.426-94.426-94.426
		c-5.004,0-9.93,0.39-14.774,1.172C302.43,38.383,257.485,0,203.547,0C142.11,0,92.317,49.797,92.317,111.234
		c0,14.453,2.808,28.152,7.762,40.809c0.183,0.492,0.316,0.996,0.508,1.488c-41.969,9.539-73.383,47.133-73.383,92.074
		c0,52.137,42.285,94.426,94.504,94.426h24.23l11.805-14.382l35.878-43.462l52.762-64.098c6.098-7.426,15.09-11.414,24.156-11.414
		c4.687,0,9.301,1.098,13.758,3.207c12.973,6.332,19.934,20.793,16.726,34.941l-14.304,64.02l-3.754,16.882l53.234,14.305h70.977
		c42.836,0,77.621-34.781,77.621-77.617C484.797,224.5,457.672,193,421.715,186.121z" style="fill: rgb(255, 255, 255);"></path>
	<polygon class="st0" points="245.914,348.164 246.539,345.504 247.793,340.031 256.234,302.043 263.797,268.152 270.66,238.047 
		270.461,238.289 270.539,237.946 217.774,302.043 186.43,340.031 181.894,345.504 164.558,366.574 156.531,376.226 
		156.602,376.242 156.492,376.379 251.23,401.785 226.531,512 307.066,414.242 340.535,373.722 340.465,373.703 340.578,373.566 	
		" style="fill: rgb(255, 255, 255);"></polygon>
</g>
</svg>
